<svg width="972" height="143" viewBox="0 0 972 143" fill="none" xmlns="http://www.w3.org/2000/svg">
<g clip-path="url(#clip0_101_15)">
<path d="M411.89 11.06H407.93V131.05H411.89V11.06Z" fill="white"/>
<path d="M148.87 92C148.87 75 163.05 61.38 180.03 61.38C183.849 61.3201 187.636 62.0876 191.13 63.63V58.43C191.13 50.85 186.36 46.92 179.05 46.92H167.26V27.76H179.9C197.31 27.76 210.8 40.4 210.8 58.38V92.23C210.8 99.11 215.8 104.16 221.89 104.16V123.26C217.825 123.278 213.798 122.486 210.042 120.931C206.287 119.377 202.878 117.09 200.015 114.205C197.152 111.319 194.892 107.893 193.367 104.125C191.841 100.358 191.081 96.3244 191.13 92.26C191.121 90.7944 190.823 89.3451 190.254 87.9946C189.684 86.6441 188.855 85.419 187.812 84.3892C186.769 83.3594 185.534 82.5451 184.176 81.9927C182.819 81.4404 181.366 81.1608 179.9 81.17C178.434 81.1792 176.985 81.477 175.635 82.0463C174.284 82.6156 173.059 83.4454 172.029 84.4882C170.999 85.531 170.185 86.7664 169.633 88.1239C169.08 89.4814 168.801 90.9344 168.81 92.4C168.81 98.58 173.01 104.19 179.9 104.19H189.9V123.29H179.9C171.647 123.219 163.756 119.887 157.949 114.022C152.142 108.157 148.889 100.234 148.9 91.98M224.74 104.19H226.74C228.228 104.197 229.702 103.905 231.075 103.332C232.448 102.759 233.692 101.915 234.733 100.852C235.774 99.7888 236.59 98.5273 237.134 97.1424C237.679 95.7575 237.939 94.2774 237.9 92.79C237.9 80.29 216.28 83.24 216.28 58.52C216.28 41.67 231.28 27.76 248.16 27.76H257.84V46.87H248.16C246.604 46.8244 245.055 47.0923 243.605 47.658C242.155 48.2236 240.833 49.0753 239.719 50.1624C238.605 51.2494 237.721 52.5496 237.12 53.9854C236.519 55.4213 236.213 56.9634 236.22 58.52C236.22 72.14 257.84 68.77 257.84 93.07C257.84 109.93 244.08 123.26 227.08 123.26H224.71L224.74 104.19ZM260.68 27.79H280.34V46.89H260.65L260.68 27.79ZM260.68 49.7H280.34V123.3H260.65L260.68 49.7ZM282.87 75.7C282.896 63.0301 287.931 50.8845 296.876 41.9115C305.82 32.9385 317.95 27.866 330.62 27.8V46.87C315.18 46.87 302.82 59.92 302.82 75.66C302.82 91.11 315.18 104.16 330.62 104.16H336.53V123.26H330.62C317.983 123.255 305.864 118.243 296.914 109.322C287.965 100.4 282.915 88.2964 282.87 75.66M339.33 104.16H341.33C342.822 104.178 344.303 103.895 345.684 103.328C347.065 102.762 348.318 101.923 349.367 100.862C350.417 99.801 351.243 98.5395 351.795 97.1527C352.347 95.7659 352.614 94.2822 352.58 92.79C352.58 80.29 330.94 83.24 330.94 58.52C330.94 41.67 345.94 27.76 362.82 27.76H372.52V46.87H362.82C361.264 46.8244 359.715 47.0923 358.265 47.658C356.815 48.2236 355.493 49.0753 354.379 50.1624C353.265 51.2494 352.381 52.5496 351.78 53.9854C351.179 55.4213 350.873 56.9634 350.88 58.52C350.88 72.14 372.52 68.77 372.52 93.07C372.52 109.93 358.75 123.26 341.76 123.26H339.3L339.33 104.16Z" fill="white"/>
<path d="M110 0C86.54 0 60.64 14.37 44.39 28L45.68 29.86C70.9 12.16 105.91 0.67 115.57 17.91C120.66 27.01 112 45.36 99.82 59.91C102.74 53.5 100.82 41.2 83.82 41.2C55.58 41.17 0 78.55 0 116.78C0 132.11 10.63 142.11 28.16 142.11C75.07 142.11 138.68 65.29 138.68 26.7C138.68 13.08 130.83 0 110 0ZM44.21 100.79C36.09 100.79 32.21 94.55 34.21 87.33C38.42 72.39 65.45 50.24 83.85 50.24C97.29 50.24 96.28 62.24 88.41 72.47L84.05 77.3C68.46 92.61 54 100.79 44.21 100.79Z" fill="white"/>
<path d="M446.87 97.9V44.14H466.22V62H478V44.14H497.32V97.9H478V79H466.22V98L446.87 97.9Z" fill="white"/>
<path d="M500.38 97.9L519.54 44.14H541.07L559.87 97.9H539.08L537.36 91.15H522.78L521.12 97.9H500.38ZM526 78.37H534L532.35 72.27C531.54 69.19 530.99 66.81 530.7 65.15C530.415 63.5969 530.232 62.0269 530.15 60.45H529.81C529.728 62.0269 529.545 63.5969 529.26 65.15C528.97 66.81 528.42 69.15 527.61 72.27L526 78.37Z" fill="white"/>
<path d="M563.17 97.9V44.14H582.52V80.46H601.32V97.9H563.17Z" fill="white"/>
<path d="M613.4 93.31L619.57 78.31C621.892 79.9643 624.383 81.3688 627 82.5C628.92 83.3385 630.985 83.7937 633.08 83.84C634.171 83.8985 635.255 83.6379 636.2 83.09C636.546 82.8824 636.832 82.5894 637.032 82.2392C637.231 81.8889 637.338 81.4932 637.34 81.09C637.34 79.59 635.443 78.45 631.65 77.67L628.75 77C625.199 76.2866 621.969 74.4577 619.53 71.78C617.36 69.1697 616.224 65.8528 616.34 62.46C616.258 59.7939 616.773 57.1432 617.847 54.7018C618.922 52.2604 620.528 50.0902 622.55 48.35C626.677 44.73 632.097 42.92 638.81 42.92C641.887 42.9171 644.951 43.324 647.92 44.13C651.052 45.0019 654.072 46.2335 656.92 47.8L651.05 61.87C649.332 60.5783 647.448 59.5222 645.45 58.73C643.715 58.0373 641.868 57.6712 640 57.65C638.914 57.5889 637.832 57.8239 636.87 58.33C636.532 58.5178 636.251 58.7937 636.058 59.1282C635.864 59.4627 635.765 59.8435 635.77 60.23C635.77 61.7433 638.437 63.0767 643.77 64.23L645.77 64.67C649.177 65.331 652.258 67.1291 654.51 69.77C656.658 72.3965 657.791 75.708 657.7 79.1C657.78 81.8564 657.243 84.5958 656.129 87.1182C655.015 89.6407 653.351 91.8825 651.26 93.68C646.96 97.4533 641.37 99.34 634.49 99.34C630.941 99.3218 627.411 98.8136 624 97.83C620.297 96.7577 616.737 95.2399 613.4 93.31Z" fill="white"/>
<path d="M671.17 97.9V61.73H660.41V44.14H701.24V61.73H690.48V97.9H671.17Z" fill="white"/>
<path d="M705.33 73.3V44.14H724.64V73.45C724.64 76.85 725.047 79.1833 725.86 80.45C726.368 81.0598 727.005 81.5494 727.725 81.8834C728.445 82.2175 729.23 82.3878 730.024 82.3821C730.818 82.3764 731.601 82.1947 732.316 81.8503C733.031 81.5058 733.661 81.0071 734.16 80.39C734.99 79.07 735.4 76.74 735.4 73.39V44.14H754.72V73.3C754.775 76.4635 754.524 79.6249 753.97 82.74C753.573 84.9425 752.755 87.0477 751.56 88.94C749.412 92.2947 746.358 94.9716 742.75 96.66C738.726 98.4274 734.38 99.34 729.985 99.34C725.59 99.34 721.244 98.4274 717.22 96.66C713.614 94.9688 710.56 92.2925 708.41 88.94C707.24 87.0667 706.442 84.9854 706.06 82.81C705.515 79.6704 705.271 76.486 705.33 73.3Z" fill="white"/>
<path d="M759.56 97.9V44.14H775.21C779.465 44.0927 783.717 44.3702 787.93 44.97C790.908 45.3578 793.804 46.2186 796.51 47.52C800.897 49.7266 804.598 53.0914 807.21 57.25C809.727 61.411 811.02 66.1975 810.94 71.06C811.022 75.8949 809.736 80.6545 807.23 84.79C804.604 88.9442 800.898 92.3071 796.51 94.52C793.777 95.8383 790.849 96.7094 787.84 97.1C783.175 97.7032 778.473 97.9705 773.77 97.9H759.56ZM778.73 81.49C783.09 81.49 786.273 80.6367 788.28 78.93C790.28 77.26 791.28 74.63 791.28 71.06C791.28 67.49 790.28 64.95 788.4 63.24C786.52 61.53 783.53 60.67 779.57 60.67H778.72L778.73 81.49Z" fill="white"/>
<path d="M814.2 97.9V44.14H833.84V97.9H814.2Z" fill="white"/>
<path d="M894.18 71.13C894.213 74.8993 893.499 78.6379 892.08 82.13C890.69 85.5405 888.621 88.633 886 91.22C883.327 93.82 880.162 95.8599 876.69 97.22C869.455 100.02 861.435 100.02 854.2 97.22C850.714 95.8343 847.542 93.7634 844.87 91.13C842.243 88.5869 840.178 85.5208 838.81 82.13C836.077 74.9997 836.077 67.1103 838.81 59.98C840.171 56.5855 842.237 53.5181 844.87 50.98C847.532 48.3765 850.692 46.336 854.16 44.98C861.447 42.2198 869.493 42.2198 876.78 44.98C880.258 46.3402 883.43 48.3799 886.11 50.98C888.705 53.5374 890.748 56.6007 892.11 59.98C893.529 63.5238 894.232 67.3132 894.18 71.13ZM865.42 81.27C866.654 81.3208 867.884 81.0978 869.022 80.6172C870.159 80.1366 871.176 79.4101 872 78.49C873.725 76.4373 874.611 73.8083 874.48 71.13C874.609 68.4307 873.725 65.7805 872 63.7C871.154 62.8102 870.135 62.1017 869.007 61.6175C867.878 61.1334 866.663 60.8837 865.435 60.8837C864.207 60.8837 862.992 61.1334 861.863 61.6175C860.735 62.1017 859.716 62.8102 858.87 63.7C857.14 65.775 856.249 68.4214 856.37 71.12C856.24 73.8015 857.134 76.4322 858.87 78.48C859.692 79.3952 860.704 80.1193 861.836 80.6013C862.967 81.0834 864.191 81.3116 865.42 81.27Z" fill="white"/>
<path d="M894.18 93.31L900.35 78.31C902.659 79.9819 905.14 81.4033 907.75 82.55C909.666 83.3892 911.729 83.8444 913.82 83.89C914.911 83.9509 915.996 83.6901 916.94 83.14C917.286 82.9324 917.572 82.6394 917.772 82.2892C917.971 81.9389 918.078 81.5432 918.08 81.14C918.08 79.64 916.19 78.5 912.39 77.72L909.53 77C905.979 76.2866 902.749 74.4577 900.31 71.78C898.136 69.1711 896.997 65.854 897.11 62.46C897.028 59.7939 897.543 57.1432 898.617 54.7018C899.692 52.2604 901.298 50.0902 903.32 48.35C907.46 44.73 912.883 42.92 919.59 42.92C922.667 42.9176 925.73 43.3246 928.7 44.13C931.83 45.0055 934.85 46.2368 937.7 47.8L931.82 61.87C930.105 60.578 928.225 59.5219 926.23 58.73C924.492 58.0347 922.641 57.6652 920.77 57.64C919.688 57.5807 918.61 57.8157 917.65 58.32C917.311 58.5061 917.029 58.7816 916.835 59.1165C916.641 59.4514 916.542 59.8331 916.55 60.22C916.55 61.7333 919.217 63.0667 924.55 64.22L926.55 64.66C929.958 65.3187 933.04 67.1173 935.29 69.76C937.441 72.3855 938.577 75.6968 938.49 79.09C938.57 81.8474 938.032 84.5877 936.916 87.1105C935.8 89.6332 934.134 91.8744 932.04 93.67C927.747 97.4433 922.16 99.33 915.28 99.33C911.7 99.3192 908.14 98.811 904.7 97.82C901.025 96.7455 897.492 95.2312 894.18 93.31Z" fill="white"/>
<path d="M941.92 57.89C941.92 54.9233 942.8 52.0232 944.448 49.5565C946.096 47.0897 948.439 45.1671 951.18 44.0318C953.921 42.8965 956.937 42.5994 959.846 43.1782C962.756 43.757 965.429 45.1856 967.527 47.2834C969.624 49.3812 971.053 52.0539 971.632 54.9637C972.211 57.8734 971.914 60.8894 970.778 63.6303C969.643 66.3712 967.72 68.7138 965.254 70.3621C962.787 72.0103 959.887 72.89 956.92 72.89C952.942 72.89 949.126 71.3097 946.313 68.4966C943.5 65.6836 941.92 61.8683 941.92 57.89ZM968.43 57.89C968.43 54.848 967.222 51.9305 965.07 49.7795C962.919 47.6284 960.002 46.42 956.96 46.42C953.918 46.42 951.001 47.6284 948.849 49.7795C946.698 51.9305 945.49 54.848 945.49 57.89C945.49 60.932 946.698 63.8495 948.849 66.0005C951.001 68.1516 953.918 69.36 956.96 69.36C960.002 69.36 962.919 68.1516 965.07 66.0005C967.222 63.8495 968.43 60.932 968.43 57.89ZM963.18 64.65H959.75L956.59 58.65H954.39V64.65H951.23V50.51H958.1C961.36 50.51 963.59 51.09 963.59 54.84C963.59 57.44 962.25 58.51 959.75 58.68L963.18 64.65ZM958.18 56.55C959.76 56.55 960.65 56.21 960.65 54.42C960.65 52.98 958.83 52.98 957.46 52.98H954.4V56.55H958.18Z" fill="white"/>
</g>
<defs>
<clipPath id="clip0_101_15">
<rect width="972" height="142.11" fill="white"/>
</clipPath>
</defs>
</svg>
