<svg xml:space="preserve" style="enable-background:new 0 0 566.9 27;" viewBox="0 0 566.9 27" y="0px" x="0px" xmlns:xlink="http://www.w3.org/1999/xlink" xmlns="http://www.w3.org/2000/svg" version="1.1">
<g id="Layer_1">
</g>
<g id="Isolation_Mode">
	<g>
		<g>
			<path d="M9.2,0.6h5.1l9.2,20.6h-4.8l-2.2-5.1H6.8l-2.1,5.1H0L9.2,0.6z M15.2,12.8l-3.5-8.7l-3.6,8.7H15.2z"></path>
			<path d="M33.3,0c3.2,0,9.5,0.6,10.1,6.5h-4.7c-0.1-1.6-1.6-3.3-5.2-3.3c-2.9,0-4.8,0.9-4.8,2.8c0,4.8,15.3,0.2,15.3,9
				c0,5.3-5.5,6.7-9.9,6.7c-7.4,0-10.4-2.9-10.4-7.2h4.7c0.1,2.7,2.4,4,5.9,4c2.6,0,5.1-0.8,5.1-3c0-5.1-15.2-0.7-15.2-9.1
				C24.2,1.8,28.3,0,33.3,0z"></path>
			<path d="M46.7,0.6h4.3v20.6h-4.3V0.6z"></path>
			<path d="M72.2,8.2c-0.4-3.1-3-5-6.6-5c-4,0-7,2.7-7,8c0,4.3,3,7.3,7.2,7.3c4.5,0,6-3.1,6.3-5.2h4.7c-0.6,4.1-3.3,8.5-11.8,8.5
				c-7.4,0-11-5.1-11-10.9S57.5,0,65.6,0c7.1,0,10.8,3.8,11.3,8.2H72.2z"></path>
			<path d="M88.4,0c3.2,0,9.5,0.6,10.1,6.5h-4.7c-0.1-1.6-1.6-3.3-5.2-3.3c-2.9,0-4.8,0.9-4.8,2.8c0,4.8,15.3,0.2,15.3,9
				c0,5.3-5.5,6.7-9.9,6.7c-7.4,0-10.4-2.9-10.4-7.2h4.7c0.1,2.7,2.4,4,5.9,4c2.6,0,5.1-0.8,5.1-3c0-5.1-15.2-0.7-15.2-9.1
				C79.3,1.8,83.3,0,88.4,0z"></path>
			<path d="M133.9,21.2h-2.5l-0.6-2.7c-1.7,2-4.6,3.3-7.8,3.3c-8.7,0-12.1-5.1-12.1-10.9S114.4,0,122.8,0c6.3,0,10.3,3.2,10.7,7.2
				h-4.7c-0.8-2.8-3.4-4-6.2-4c-5.3,0-7.4,3.3-7.4,7.8c0,5.5,3.5,7.5,7.2,7.5c4.4,0,6.4-2,7.1-5.4h-5.8V9.9h10.2V21.2z"></path>
			<path d="M138.1,0.6H156v3.2h-13.6V9h13v3.2h-13v5.7h13.8v3.2h-18.1V0.6z"></path>
			<path d="M159.5,0.6h4.3v17.2h12.5v3.4h-16.8V0.6z"></path>
			<path d="M178.5,11.3h10.2v3.4h-10.2V11.3z"></path>
			<path d="M197.2,7.3h-6V4.4h1.2c2,0,5.2-0.5,5.8-3.6h3.2v20.3h-4.2V7.3z"></path>
			<path d="M211.7,7.3h-6V4.4h1.2c2,0,5.2-0.5,5.8-3.6h3.2v20.3h-4.2V7.3z"></path>
			<path d="M224.9,14.8c0.2,2.9,2.4,3.8,5.1,3.8c2.8,0,5-1.2,5-3.3c0-1.3-0.7-3.2-4.7-3.2h-2.4V9.2h2.7c2.3,0,3.7-0.8,3.7-2.5
				c0-1.5-1.2-2.9-4.4-2.9c-3.1,0-4.2,1.8-4.4,3.5h-4.2c0.4-4.9,4.5-6.5,9-6.5c6.3,0,8.3,2.9,8.3,5.9c0,1.3-0.8,3-3.1,3.7v0.1
				c2.5,0.6,4,2.4,4,4.6c0,2.2-1,6.7-9.5,6.7c-4.3,0-9.1-1.4-9.2-6.9H224.9z"></path>
			<path d="M251.1,21.6c-6.1,0-9.1-4.4-9.1-10.5c0-6,2.9-10.4,9.8-10.4c6.1,0,9.1,4.4,9.1,10.4C260.8,17.2,257.9,21.6,251.1,21.6z
				 M251.4,3.8c-3.8,0-5.3,3.5-5.3,7.4c0,3.9,1.4,7.4,5.3,7.4c3.8,0,5.2-3.5,5.2-7.4C256.7,7.3,255.2,3.8,251.4,3.8z"></path>
			<path d="M273.9,0.2h4v7.8h0.1c1.2-1.8,3.5-2.6,5.9-2.6c5.8,0,8.4,4.2,8.4,8.1c0,3.9-2.5,8.2-8.4,8.2c-3.2,0-5.6-1.8-5.9-2.7h-0.1
				v2.1h-4V0.2z M277.7,13.6c0,2.6,1.4,5.1,5.1,5.1c3.8,0,5.2-2.5,5.2-5.1c0-2.5-1.4-5-5.2-5C279.1,8.5,277.7,11,277.7,13.6z"></path>
			<path d="M292.8,5.9h4.3l4.9,10.9l4.8-10.9h4.2l-8.3,18c-1.2,2.6-2.2,3.1-5.5,3.1c-0.7,0-1.7,0-2.5-0.1v-3.1c0.3,0,1.1,0.1,2,0.1
				c1.1,0,1.8-0.2,2.3-1.2l0.9-1.8L292.8,5.9z"></path>
			<path d="M323,0.6h4.3v8h12.8v-8h4.3v20.6h-4.3v-9.3h-12.8v9.3H323V0.6z"></path>
			<path d="M355.4,0.6h5.1l9.2,20.6h-4.8l-2.2-5.1h-9.7l-2.1,5.1h-4.7L355.4,0.6z M361.5,12.8L358,4.2l-3.6,8.7H361.5z"></path>
			<path d="M371.6,0.6h4.3v17.2h12.5v3.4h-16.8V0.6z"></path>
			<path d="M409,0c3.2,0,9.5,0.6,10.1,6.5h-4.7c-0.1-1.6-1.6-3.3-5.2-3.3c-2.9,0-4.8,0.9-4.8,2.8c0,4.8,15.3,0.2,15.3,9
				c0,5.3-5.5,6.7-9.9,6.7c-7.4,0-10.4-2.9-10.4-7.2h4.7c0.1,2.7,2.4,4,5.9,4c2.6,0,5.1-0.8,5.1-3c0-5.1-15.2-0.7-15.2-9.1
				C399.9,1.8,404,0,409,0z"></path>
			<path d="M428,3.8h-7.7V0.6h19.8v3.2h-7.7v17.4H428V3.8z"></path>
			<path d="M442,0.6h4.3v11.6c0,2.9,0.1,6.3,5.7,6.3c5.7,0,5.8-3.5,5.8-6.3V0.6h4.3v11.7c0,3.4-0.1,9.4-10.1,9.4
				c-10,0-10.1-6-10.1-9.4V0.6z"></path>
			<path d="M466.2,0.6h11.1c8.1,0,10.1,4.6,10.1,10.5c0,4.4-2,10.1-9,10.1h-12.1V0.6z M470.6,17.9h6.1c3.1,0,6.4-1,6.4-7
				c0-6.7-4.2-7.1-6.7-7.1h-5.9V17.9z"></path>
			<path d="M490.8,0.6h4.3v20.6h-4.3V0.6z"></path>
			<path d="M498.2,10.9c0-5.8,3.4-10.9,12.1-10.9c8.7,0,12.1,5.1,12.1,10.9s-3.4,10.9-12.1,10.9C501.6,21.8,498.2,16.7,498.2,10.9z
				 M518,10.9c0-4.5-2.8-7.6-7.6-7.6c-4.8,0-7.6,3.1-7.6,7.6c0,4.5,2.8,7.6,7.6,7.6C515.2,18.5,518,15.4,518,10.9z"></path>
			<path d="M533.5,0c3.2,0,9.5,0.6,10.1,6.5h-4.7c-0.1-1.6-1.6-3.3-5.2-3.3c-2.9,0-4.8,0.9-4.8,2.8c0,4.8,15.3,0.2,15.3,9
				c0,5.3-5.5,6.7-9.9,6.7c-7.4,0-10.4-2.9-10.4-7.2h4.7c0.1,2.7,2.4,4,5.9,4c2.6,0,5.1-0.8,5.1-3c0-5.1-15.2-0.7-15.2-9.1
				C524.4,1.8,528.5,0,533.5,0z"></path>
			<path d="M556.3,0c5.6,0,10.6,4.4,10.6,10.9s-5,10.9-10.6,10.9c-5.6,0-10.6-4.4-10.6-10.9S550.7,0,556.3,0z M556.3,19.4
				c4.4,0,8-3.5,8-8.5c0-5-3.6-8.5-8-8.5c-4.5,0-8,3.5-8,8.5C548.3,15.9,551.9,19.4,556.3,19.4z M552.2,5.2h4.5c2.9,0,4.4,1,4.4,3.5
				c0,2.1-1.3,3-3,3.2l3.2,5.2H559l-3-5.1h-1.6V17h-2.2V5.2z M554.4,10.2h2c1.4,0,2.5-0.2,2.5-1.8c0-1.4-1.3-1.6-2.5-1.6h-2.1V10.2z"></path>
		</g>
	</g>
</g>
</svg>
