<svg xml:space="preserve" style="enable-background:new 0 0 244.8 16.7;" viewBox="0 0 244.8 16.7" y="0px" x="0px" xmlns:xlink="http://www.w3.org/1999/xlink" xmlns="http://www.w3.org/2000/svg" version="1.1">
<g id="Layer_1">
	<g id="Layer_1_00000147187258549873519390000014244228095941654958_">
	</g>
</g>
<g id="Isolation_Mode">
	<g>
		<path d="M1,2h2.1v3.9h6.2V2h2.1v10H9.4V7.5H3.1v4.6H1V2z"></path>
		<path d="M16.9,2h2.5l4.5,10h-2.3l-1.1-2.5h-4.7l-1,2.5h-2.3L16.9,2z M19.8,8l-1.7-4.2L16.3,8H19.8z"></path>
		<path d="M24.7,2h2.1v5.7c0,1.4,0.1,3.1,2.8,3.1c2.8,0,2.8-1.7,2.8-3.1V2h2.1v5.7c0,1.7-0.1,4.6-4.9,4.6c-4.9,0-4.9-2.9-4.9-4.6V2z"></path>
		<path d="M40.4,1.8c1.5,0,4.6,0.3,4.9,3.2H43c-0.1-0.8-0.8-1.6-2.5-1.6c-1.4,0-2.3,0.4-2.3,1.4c0,2.4,7.5,0.1,7.5,4.4
			c0,2.6-2.7,3.3-4.8,3.3c-3.6,0-5.1-1.4-5.1-3.5H38c0.1,1.3,1.2,2,2.9,2c1.3,0,2.5-0.4,2.5-1.5c0-2.5-7.4-0.3-7.4-4.4
			C35.9,2.6,37.9,1.8,40.4,1.8z"></path>
		<path d="M45.8,2h2.3l2.3,7.8h0L52.9,2h2.2l2.5,7.8h0L59.9,2h2.2l-3.4,10h-2.3l-2.5-7.7h0l-2.5,7.7h-2.3L45.8,2z"></path>
		<path d="M63,2h8.7v1.6h-6.6v2.5h6.3v1.6h-6.3v2.8h6.7v1.6H63V2z"></path>
		<path d="M76.8,2h2.5l4.5,10h-2.3l-1.1-2.5h-4.7l-1,2.5h-2.3L76.8,2z M79.7,8L78,3.8L76.3,8H79.7z"></path>
		<path d="M84.7,2H91c2.6,0,3.4,1.2,3.4,2.7c0,1.3-0.7,2.1-1.7,2.4v0c1.2,0.3,1.5,1.3,1.5,2.7c0,0.5,0,1.6,0.4,2.2h-2.3
			c-0.2-0.3-0.3-0.8-0.3-1.5c0-1.4-0.2-2.4-1.7-2.4h-3.6v4h-2.1V2z M90.4,6.5c1.2,0,1.8-0.4,1.8-1.5c0-1-0.7-1.4-1.8-1.4h-3.6v2.9
			H90.4z"></path>
		<path d="M100.9,1.9h1.9v3.8h0c0.6-0.9,1.7-1.3,2.9-1.3c2.8,0,4.1,2.1,4.1,4c0,1.9-1.2,4-4.1,4c-1.5,0-2.7-0.9-2.9-1.3h0v1h-1.9
			V1.9z M102.7,8.4c0,1.3,0.7,2.5,2.5,2.5c1.8,0,2.5-1.2,2.5-2.5c0-1.2-0.7-2.5-2.5-2.5C103.4,5.9,102.7,7.1,102.7,8.4z"></path>
		<path d="M110.1,4.6h2.1l2.4,5.3l2.3-5.3h2.1l-4.1,8.8c-0.6,1.3-1.1,1.5-2.7,1.5c-0.3,0-0.8,0-1.2,0v-1.5c0.2,0,0.5,0,1,0
			c0.5,0,0.9-0.1,1.1-0.6l0.4-0.9L110.1,4.6z"></path>
		<path d="M124.8,2h2.1v3.9h6.2V2h2.1v10h-2.1V7.5h-6.2v4.6h-2.1V2z"></path>
		<path d="M140.6,2h2.5l4.5,10h-2.3l-1.1-2.5h-4.7l-1,2.5h-2.3L140.6,2z M143.6,8l-1.7-4.2L140.1,8H143.6z"></path>
		<path d="M148.5,2h2.1v8.4h6.1v1.7h-8.2V2z"></path>
		<path d="M166.7,1.8c1.5,0,4.6,0.3,4.9,3.2h-2.3c-0.1-0.8-0.8-1.6-2.5-1.6c-1.4,0-2.3,0.4-2.3,1.4c0,2.4,7.5,0.1,7.5,4.4
			c0,2.6-2.7,3.3-4.8,3.3c-3.6,0-5.1-1.4-5.1-3.5h2.3c0.1,1.3,1.2,2,2.9,2c1.3,0,2.5-0.4,2.5-1.5c0-2.5-7.4-0.3-7.4-4.4
			C162.3,2.6,164.3,1.8,166.7,1.8z"></path>
		<path d="M176,3.6h-3.8V2h9.7v1.6h-3.8v8.5H176V3.6z"></path>
		<path d="M182.8,2h2.1v5.7c0,1.4,0.1,3.1,2.8,3.1c2.8,0,2.8-1.7,2.8-3.1V2h2.1v5.7c0,1.7-0.1,4.6-4.9,4.6c-4.9,0-4.9-2.9-4.9-4.6V2
			z"></path>
		<path d="M194.7,2h5.4c3.9,0,4.9,2.3,4.9,5.1c0,2.2-1,4.9-4.4,4.9h-5.9V2z M196.8,10.5h3c1.5,0,3.1-0.5,3.1-3.4
			c0-3.3-2.1-3.5-3.2-3.5h-2.9V10.5z"></path>
		<path d="M206.6,2h2.1v10h-2.1V2z"></path>
		<path d="M210.2,7.1c0-2.8,1.7-5.3,5.9-5.3s5.9,2.5,5.9,5.3c0,2.8-1.7,5.3-5.9,5.3S210.2,9.9,210.2,7.1z M219.9,7.1
			c0-2.2-1.4-3.7-3.7-3.7c-2.4,0-3.7,1.5-3.7,3.7c0,2.2,1.4,3.7,3.7,3.7C218.5,10.8,219.9,9.3,219.9,7.1z"></path>
		<path d="M227.5,1.8c1.5,0,4.6,0.3,4.9,3.2h-2.3c-0.1-0.8-0.8-1.6-2.5-1.6c-1.4,0-2.3,0.4-2.3,1.4c0,2.4,7.5,0.1,7.5,4.4
			c0,2.6-2.7,3.3-4.8,3.3c-3.6,0-5.1-1.4-5.1-3.5h2.3c0.1,1.3,1.2,2,2.9,2c1.3,0,2.5-0.4,2.5-1.5c0-2.5-7.4-0.3-7.4-4.4
			C223,2.6,225,1.8,227.5,1.8z"></path>
		<path d="M238.6,1.8c2.7,0,5.2,2.1,5.2,5.3c0,3.2-2.4,5.3-5.2,5.3s-5.2-2.1-5.2-5.3C233.4,3.9,235.9,1.8,238.6,1.8z M238.6,11.2
			c2.2,0,3.9-1.7,3.9-4.2c0-2.4-1.8-4.2-3.9-4.2c-2.2,0-3.9,1.7-3.9,4.2C234.7,9.5,236.4,11.2,238.6,11.2z M236.6,4.3h2.2
			c1.4,0,2.2,0.5,2.2,1.7c0,1-0.6,1.5-1.4,1.5L241,10h-1.2l-1.4-2.5h-0.8V10h-1.1V4.3z M237.6,6.7h1c0.7,0,1.2-0.1,1.2-0.9
			c0-0.7-0.6-0.8-1.2-0.8h-1V6.7z"></path>
	</g>
</g>
</svg>
