<svg viewBox="0 0 800 160" xmlns="http://www.w3.org/2000/svg"><path d="M62.28,94.72A10,10,0,0,0,63.13,99,8,8,0,0,0,65.51,102,10.9,10.9,0,0,0,69,103.64a17.32,17.32,0,0,0,4.31.52,13.47,13.47,0,0,0,4.28-.6,8.35,8.35,0,0,0,2.87-1.51,5.28,5.28,0,0,0,1.58-2.13,6.29,6.29,0,0,0,.5-2.43,5.32,5.32,0,0,0-1.13-3.73A6.29,6.29,0,0,0,79,92.07a54.06,54.06,0,0,0-5.41-1.65c-2.06-.5-4.6-1.18-7.61-2a16.65,16.65,0,0,1-4.68-1.92,11.6,11.6,0,0,1-3-2.69,9.49,9.49,0,0,1-1.55-3.16,12.43,12.43,0,0,1-.46-3.39,11.67,11.67,0,0,1,1.37-5.77,12.32,12.32,0,0,1,3.63-4,15.76,15.76,0,0,1,5.15-2.37,22,22,0,0,1,5.8-.79,22.42,22.42,0,0,1,6.44.91A15.58,15.58,0,0,1,84,67.87a12.82,12.82,0,0,1,5,10.5H81.35q-.31-4.28-2.88-6a11.33,11.33,0,0,0-6.53-1.77,14.6,14.6,0,0,0-2.76.28,9.18,9.18,0,0,0-2.56.93,5.71,5.71,0,0,0-1.93,1.76A5.44,5.44,0,0,0,65.36,80a9.44,9.44,0,0,0,3.76,2l1.92.52,3.76,1,4.07,1.07,2.85.78a12.46,12.46,0,0,1,3.72,1.85,11.41,11.41,0,0,1,4.24,5.92,11.87,11.87,0,0,1,.53,3.46,12.15,12.15,0,0,1-5.44,10.6,16.77,16.77,0,0,1-5.56,2.45,26.61,26.61,0,0,1-6.36.77,25.46,25.46,0,0,1-7-.93,16.41,16.41,0,0,1-5.74-2.83,14,14,0,0,1-3.92-4.92,16.5,16.5,0,0,1-1.52-7Z"></path><path d="M97.78,65.34h31.41V72H105.42V83.55h22v6.29h-22v12.89h24.2v6.67H97.78Z"></path><path d="M148.87,65.34H157l16.8,44.06h-8.18l-4.1-11.67H144.1L140,109.4h-7.88Zm-2.69,26.53h13.33L153,72.93h-.18Z"></path><path d="M183.89,94.72a9.85,9.85,0,0,0,.86,4.32,7.82,7.82,0,0,0,2.37,2.93,10.86,10.86,0,0,0,3.53,1.67,17.18,17.18,0,0,0,4.3.52,13.43,13.43,0,0,0,4.28-.6,8.35,8.35,0,0,0,2.87-1.51,5.4,5.4,0,0,0,1.59-2.13,6.47,6.47,0,0,0,.49-2.43,5.27,5.27,0,0,0-1.13-3.73,6.29,6.29,0,0,0-2.48-1.69,54.06,54.06,0,0,0-5.41-1.65c-2.06-.5-4.59-1.18-7.61-2a16.46,16.46,0,0,1-4.67-1.92,11.49,11.49,0,0,1-3-2.69,9.68,9.68,0,0,1-1.55-3.16,12.43,12.43,0,0,1-.46-3.39,11.57,11.57,0,0,1,1.38-5.77,12.1,12.1,0,0,1,3.63-4,15.62,15.62,0,0,1,5.14-2.37,22,22,0,0,1,5.8-.79,22.37,22.37,0,0,1,6.44.91,15.72,15.72,0,0,1,5.33,2.67,12.78,12.78,0,0,1,5,10.5H203c-.21-2.85-1.16-4.86-2.88-6a11.31,11.31,0,0,0-6.53-1.77,14.6,14.6,0,0,0-2.76.28,9.18,9.18,0,0,0-2.56.93,5.8,5.8,0,0,0-1.93,1.76A5.44,5.44,0,0,0,187,80a9.44,9.44,0,0,0,3.76,2l1.92.52,3.76,1,4.07,1.07,2.85.78a12.46,12.46,0,0,1,3.72,1.85,11.5,11.5,0,0,1,4.25,5.92,12.2,12.2,0,0,1,.52,3.46,12.15,12.15,0,0,1-5.44,10.6,16.77,16.77,0,0,1-5.56,2.45,26.61,26.61,0,0,1-6.36.77,25.46,25.46,0,0,1-7-.93,16.41,16.41,0,0,1-5.74-2.83,14,14,0,0,1-3.92-4.92,16.5,16.5,0,0,1-1.52-7Z"></path><path d="M238,64.29a20.33,20.33,0,0,1,8.77,1.85,20,20,0,0,1,6.57,5,22.59,22.59,0,0,1,4.13,7.35,28.47,28.47,0,0,1,0,17.82,22.38,22.38,0,0,1-4.13,7.35,19.14,19.14,0,0,1-6.57,5,21.93,21.93,0,0,1-17.54,0,19.14,19.14,0,0,1-6.57-5,21.84,21.84,0,0,1-4.12-7.35,28.1,28.1,0,0,1,0-17.82,22,22,0,0,1,4.12-7.35,20,20,0,0,1,6.57-5A20.33,20.33,0,0,1,238,64.29Zm0,6.29A12,12,0,0,0,232,72a11.67,11.67,0,0,0-4.13,3.79,17.21,17.21,0,0,0-2.36,5.4,25.11,25.11,0,0,0,0,12.34,17,17,0,0,0,2.36,5.4,11.58,11.58,0,0,0,4.13,3.79,13.37,13.37,0,0,0,12,0,11.83,11.83,0,0,0,4.13-3.79,17.46,17.46,0,0,0,2.35-5.4,25.43,25.43,0,0,0,0-12.34,17.67,17.67,0,0,0-2.35-5.4A11.93,11.93,0,0,0,244,72,12.1,12.1,0,0,0,238,70.58Z"></path><path d="M266.45,65.34h8.07l19.92,32.45h.12V65.34h7.28V109.4h-8.06L273.91,77h-.19V109.4h-7.27Z"></path><path d="M495.88,94.72a10,10,0,0,0,.85,4.32,8,8,0,0,0,2.38,2.93,10.9,10.9,0,0,0,3.52,1.67,17.32,17.32,0,0,0,4.31.52,13.47,13.47,0,0,0,4.28-.6,8.35,8.35,0,0,0,2.87-1.51,5.28,5.28,0,0,0,1.58-2.13,6.29,6.29,0,0,0,.5-2.43A5.32,5.32,0,0,0,515,93.76a6.29,6.29,0,0,0-2.48-1.69,54.06,54.06,0,0,0-5.41-1.65c-2.06-.5-4.6-1.18-7.61-2a16.65,16.65,0,0,1-4.68-1.92,11.6,11.6,0,0,1-3-2.69,9.49,9.49,0,0,1-1.55-3.16,12.43,12.43,0,0,1-.46-3.39,11.67,11.67,0,0,1,1.37-5.77,12.32,12.32,0,0,1,3.63-4A15.76,15.76,0,0,1,500,65.08a22,22,0,0,1,5.8-.79,22.42,22.42,0,0,1,6.44.91,15.58,15.58,0,0,1,5.32,2.67,12.82,12.82,0,0,1,5,10.5H515q-.32-4.28-2.88-6a11.33,11.33,0,0,0-6.53-1.77,14.6,14.6,0,0,0-2.76.28,9.18,9.18,0,0,0-2.56.93,5.71,5.71,0,0,0-1.93,1.76A5.44,5.44,0,0,0,499,80a9.44,9.44,0,0,0,3.76,2l1.92.52,3.76,1,4.07,1.07,2.85.78A12.46,12.46,0,0,1,519,87.25a11.5,11.5,0,0,1,2.66,2.69,11.14,11.14,0,0,1,1.58,3.23,11.87,11.87,0,0,1,.53,3.46,12.15,12.15,0,0,1-5.44,10.6,16.77,16.77,0,0,1-5.56,2.45,26.61,26.61,0,0,1-6.36.77,25.46,25.46,0,0,1-7-.93,16.41,16.41,0,0,1-5.74-2.83,14,14,0,0,1-3.92-4.92,16.5,16.5,0,0,1-1.52-7Z"></path><path d="M542.94,64.29h6.66l-17.53,46.16H525.4Z"></path><path d="M558.83,94.72a9.85,9.85,0,0,0,.86,4.32,7.85,7.85,0,0,0,2.38,2.93,10.81,10.81,0,0,0,3.52,1.67,17.2,17.2,0,0,0,4.31.52,13.36,13.36,0,0,0,4.27-.6,8.41,8.41,0,0,0,2.88-1.51,5.47,5.47,0,0,0,1.58-2.13,6.29,6.29,0,0,0,.5-2.43A5.27,5.27,0,0,0,578,93.76a6.26,6.26,0,0,0-2.47-1.69,55.14,55.14,0,0,0-5.42-1.65c-2.06-.5-4.59-1.18-7.61-2a16.46,16.46,0,0,1-4.67-1.92,11.44,11.44,0,0,1-3-2.69,9.52,9.52,0,0,1-1.56-3.16,12.83,12.83,0,0,1-.45-3.39,11.56,11.56,0,0,1,1.37-5.77,12.21,12.21,0,0,1,3.63-4A15.62,15.62,0,0,1,563,65.08a22,22,0,0,1,5.8-.79,22.44,22.44,0,0,1,6.45.91,15.58,15.58,0,0,1,5.32,2.67,12.78,12.78,0,0,1,5,10.5H577.9c-.21-2.85-1.16-4.86-2.87-6a11.34,11.34,0,0,0-6.54-1.77,14.5,14.5,0,0,0-2.75.28,9.24,9.24,0,0,0-2.57.93,5.9,5.9,0,0,0-1.93,1.76,4.8,4.8,0,0,0-.75,2.77A4.74,4.74,0,0,0,561.92,80a9.37,9.37,0,0,0,3.76,2l1.92.52,3.76,1,4.07,1.07,2.84.78A12.34,12.34,0,0,1,582,87.25a11.55,11.55,0,0,1,2.67,2.69,11.67,11.67,0,0,1,1.58,3.23,11.87,11.87,0,0,1,.53,3.46,12.18,12.18,0,0,1-5.45,10.6,16.77,16.77,0,0,1-5.56,2.45,26.53,26.53,0,0,1-6.35.77,25.36,25.36,0,0,1-7-.93,16.41,16.41,0,0,1-5.74-2.83,13.76,13.76,0,0,1-3.92-4.92,16.35,16.35,0,0,1-1.53-7Z"></path><path d="M639.19,109.4H610a17.74,17.74,0,0,1,2.57-9.38,23.59,23.59,0,0,1,6.84-7q2.07-1.53,4.34-3A35.19,35.19,0,0,0,627.89,87,17.4,17.4,0,0,0,631,83.33a8.59,8.59,0,0,0,1.28-4.47,12.54,12.54,0,0,0-.27-2.5,6.69,6.69,0,0,0-1.07-2.47,6.14,6.14,0,0,0-2.2-1.9,7.4,7.4,0,0,0-3.67-.79,6.42,6.42,0,0,0-3.45.85,6,6,0,0,0-2.2,2.27,11.43,11.43,0,0,0-1.22,3.43,24.28,24.28,0,0,0-.46,4.26h-7a22.27,22.27,0,0,1,1-6.63,14.52,14.52,0,0,1,2.84-5.28,13.42,13.42,0,0,1,4.61-3.5,16.82,16.82,0,0,1,12.87,0,12.55,12.55,0,0,1,4.25,3.28,11.79,11.79,0,0,1,2.29,4.28,15.74,15.74,0,0,1,.68,4.41,13,13,0,0,1-.8,4.68,15.14,15.14,0,0,1-2.14,3.86,21.8,21.8,0,0,1-3.06,3.25,44.43,44.43,0,0,1-3.54,2.77q-1.85,1.31-3.67,2.47c-1.22.79-2.35,1.57-3.4,2.33a21.06,21.06,0,0,0-2.71,2.45,6.93,6.93,0,0,0-1.59,2.68h20.84Z"></path><path d="M659.48,65.34A12.44,12.44,0,0,1,667,67.47a14.49,14.49,0,0,1,4.51,5.44,24.14,24.14,0,0,1,2.21,7.25,50.61,50.61,0,0,1,0,15.28,23.79,23.79,0,0,1-2.21,7.25,14.6,14.6,0,0,1-4.51,5.45,14.23,14.23,0,0,1-15,0,14.72,14.72,0,0,1-4.52-5.45,23.78,23.78,0,0,1-2.2-7.25,50.61,50.61,0,0,1,0-15.28,24.13,24.13,0,0,1,2.2-7.25A14.61,14.61,0,0,1,652,67.47,12.42,12.42,0,0,1,659.48,65.34Zm0,39.06a5.59,5.59,0,0,0,3.79-1.32,9.19,9.19,0,0,0,2.41-3.58,22,22,0,0,0,1.26-5.28,54.3,54.3,0,0,0,.36-6.41,53.17,53.17,0,0,0-.36-6.38,22.32,22.32,0,0,0-1.26-5.29,9,9,0,0,0-2.41-3.61,6.11,6.11,0,0,0-7.61,0,9.2,9.2,0,0,0-2.39,3.61A22.34,22.34,0,0,0,652,81.43a53.17,53.17,0,0,0-.36,6.38,54.3,54.3,0,0,0,.36,6.41,22,22,0,0,0,1.25,5.28,9.38,9.38,0,0,0,2.39,3.58A5.55,5.55,0,0,0,659.48,104.4Z"></path><path d="M709,109.4h-29.2a17.74,17.74,0,0,1,2.57-9.38,23.59,23.59,0,0,1,6.84-7c1.38-1,2.82-2,4.34-3A34.26,34.26,0,0,0,697.68,87a17.17,17.17,0,0,0,3.12-3.62,8.68,8.68,0,0,0,1.28-4.47,12.54,12.54,0,0,0-.27-2.5,6.86,6.86,0,0,0-1.07-2.47,6.23,6.23,0,0,0-2.2-1.9,7.43,7.43,0,0,0-3.67-.79,6.42,6.42,0,0,0-3.45.85,6,6,0,0,0-2.2,2.27A11.17,11.17,0,0,0,688,77.75a24.28,24.28,0,0,0-.46,4.26h-7a22,22,0,0,1,.95-6.63,14.52,14.52,0,0,1,2.84-5.28A13.42,13.42,0,0,1,689,66.6a16.82,16.82,0,0,1,12.87,0,12.55,12.55,0,0,1,4.25,3.28,11.94,11.94,0,0,1,2.29,4.28,15.71,15.71,0,0,1,.67,4.41,13,13,0,0,1-.79,4.68,15.45,15.45,0,0,1-2.14,3.86,22.33,22.33,0,0,1-3.06,3.25,42.84,42.84,0,0,1-3.55,2.77q-1.83,1.31-3.67,2.47c-1.21.79-2.34,1.57-3.39,2.33a21.06,21.06,0,0,0-2.71,2.45,6.81,6.81,0,0,0-1.59,2.68H709Z"></path><path d="M745.29,109.4h-29.2a17.74,17.74,0,0,1,2.56-9.38,23.51,23.51,0,0,1,6.85-7q2.07-1.53,4.33-3A34.39,34.39,0,0,0,734,87a17.11,17.11,0,0,0,3.11-3.62,8.6,8.6,0,0,0,1.29-4.47,12.54,12.54,0,0,0-.27-2.5A6.88,6.88,0,0,0,737,73.89a6.1,6.1,0,0,0-2.19-1.9,7.43,7.43,0,0,0-3.67-.79,6.45,6.45,0,0,0-3.46.85,6,6,0,0,0-2.19,2.27,11.44,11.44,0,0,0-1.23,3.43,24.28,24.28,0,0,0-.46,4.26h-7a22,22,0,0,1,1-6.63,14.5,14.5,0,0,1,2.83-5.28,13.55,13.55,0,0,1,4.62-3.5,16.81,16.81,0,0,1,12.87,0,12.65,12.65,0,0,1,4.25,3.28,11.76,11.76,0,0,1,2.28,4.28,15.74,15.74,0,0,1,.68,4.41,13,13,0,0,1-.8,4.68,15.11,15.11,0,0,1-2.13,3.86,21.88,21.88,0,0,1-3.07,3.25,42.7,42.7,0,0,1-3.54,2.77c-1.22.87-2.45,1.69-3.67,2.47s-2.35,1.57-3.39,2.33a21.17,21.17,0,0,0-2.72,2.45,7.06,7.06,0,0,0-1.59,2.68h20.84Z"></path><path d="M341.12,79.94c0-21.53,8.6-41.32,31.3-41.32,23.39,0,32.57,19.79,32.57,41.32s-9.18,41.44-32.57,41.44C349.72,121.38,341.12,101.47,341.12,79.94Zm45.06,0c0-10.53-.34-25.35-13.19-25.35-12.38,0-13.07,14.82-13.07,25.35s.69,25.47,13.07,25.47C385.84,105.41,386.18,90.48,386.18,79.94Z"></path><path d="M409.68,70.8V56.33c11.24.23,22.82-3.94,23.62-16.67h16.17v80.68H428.83V70.8Z"></path></svg>