<svg width="266" height="31" viewBox="0 0 266 31" fill="none" xmlns="http://www.w3.org/2000/svg">
<path d="M0.799988 1.19998H6.79999V12.3H24.4V1.19998H30.4V29.6H24.4V16.8H6.79999V29.7H0.799988C0.799988 29.7 0.799988 1.19998 0.799988 1.19998Z" fill="white"/>
<path d="M45.6 1.19998H52.7L65.4 29.6H58.7L55.7 22.6H42.4L39.5 29.6H33L45.6 1.19998ZM54 18.2L49.1 6.19998L44.2 18.2H54Z" fill="white"/>
<path d="M67.7 1.19998H73.7V17.2C73.7 21.1 73.9 25.9 81.6 25.9C89.4 25.9 89.6 21.1 89.6 17.2V1.19998H95.6V17.4C95.6 22.1 95.4 30.4 81.7 30.4C68 30.4 67.8 22.1 67.8 17.4L67.7 1.19998Z" fill="white"/>
<path d="M112.2 0.399994C116.6 0.399994 125.3 1.19999 126.1 9.39999H119.6C119.4 7.19999 117.4 4.79999 112.4 4.79999C108.4 4.79999 105.8 5.99999 105.8 8.69999C105.8 15.4 127 8.99999 127 21.1C127 28.4 119.4 30.3 113.3 30.3C103.1 30.3 99 26.3 98.9 20.3H105.4C105.6 24 108.7 25.8 113.6 25.8C117.2 25.8 120.6 24.7 120.6 21.6C120.6 14.6 99.7 20.7 99.7 8.99999C99.6 2.89999 105.2 0.399994 112.2 0.399994Z" fill="white"/>
<path d="M127.5 1.19998H134L140.4 23.3H140.5L147.6 1.19998H153.8L160.9 23.3H161L167.5 1.19998H173.7L164.1 29.6H157.6L150.5 7.79998H150.4L143.3 29.6H136.8L127.5 1.19998Z" fill="white"/>
<path d="M176.4 1.19998H201.1V5.69998H182.4V12.9H200.4V17.4H182.4V25.3H201.4V29.8H176.4V1.19998Z" fill="white"/>
<path d="M215.3 1.19998H222.4L235 29.7H228.3L225.3 22.7H212L209.1 29.7H202.6L215.3 1.19998ZM223.6 18.2L218.7 6.19998L213.8 18.2H223.6Z" fill="white"/>
<path d="M237.6 1.19998H255.6C262.8 1.19998 265.2 4.49998 265.2 8.89998C265.2 12.6 263.2 14.9 260.5 15.8V15.9C263.9 16.6 264.6 19.6 264.6 23.6C264.6 25 264.6 28.1 265.8 29.7H259.3C258.9 28.9 258.6 27.5 258.6 25.4C258.6 21.3 258 18.5 253.7 18.5H243.5V29.7H237.5L237.6 1.19998ZM253.9 14C257.2 14 259 13 259 9.79998C259 6.89998 257 5.69998 253.9 5.69998H243.6V14H253.9Z" fill="white"/>
</svg>
